<svg viewBox="0 0 70 13" fill="none" xmlns="http://www.w3.org/2000/svg">
  <path fill-rule="evenodd" clip-rule="evenodd" d="M7 10.4919L2.67376 13L3.78 8.20773L0 4.96556L5.00993 4.51189L7 0L8.99007 4.51189L14 4.96556L10.22 8.20773L11.3262 13L7 10.4919Z" fill="#F1F1F1"/>
  <path fill-rule="evenodd" clip-rule="evenodd" d="M21 10.4919L16.6738 13L17.78 8.20773L14 4.96556L19.0099 4.51189L21 0L22.9901 4.51189L28 4.96556L24.22 8.20773L25.3262 13L21 10.4919Z" fill="#F1F1F1"/>
  <path fill-rule="evenodd" clip-rule="evenodd" d="M35 10.4919L30.6738 13L31.78 8.20773L28 4.96556L33.0099 4.51189L35 0L36.9901 4.51189L42 4.96556L38.22 8.20773L39.3262 13L35 10.4919Z" fill="#F1F1F1"/>
  <path fill-rule="evenodd" clip-rule="evenodd" d="M49 10.4919L44.6738 13L45.78 8.20773L42 4.96556L47.0099 4.51189L49 0L50.9901 4.51189L56 4.96556L52.22 8.20773L53.3262 13L49 10.4919Z" fill="#F1F1F1"/>
  <path fill-rule="evenodd" clip-rule="evenodd" d="M63 10.4919L58.6738 13L59.78 8.20773L56 4.96556L61.0099 4.51189L63 0L64.9901 4.51189L70 4.96556L66.22 8.20773L67.3262 13L63 10.4919Z" fill="#F1F1F1"/>
</svg>
